<?xml version="1.0" standalone="no"?>
<!DOCTYPE svg PUBLIC "-//W3C//DTD SVG 20010904//EN"
 "http://www.w3.org/TR/2001/REC-SVG-20010904/DTD/svg10.dtd">
<svg version="1.0" xmlns="http://www.w3.org/2000/svg"
 width="1503.000000pt" height="1110.000000pt" viewBox="0 0 1503.000000 1110.000000"
 preserveAspectRatio="xMidYMid meet">
<metadata>
Created by potrace 1.10, written by Peter Selinger 2001-2011
</metadata>
<g transform="translate(0.000000,1110.000000) scale(0.100000,-0.100000)"
fill="#fbbc05" stroke="none">
<path d="M5530 10490 c-157 -25 -280 -75 -700 -285 -267 -133 -520 -298 -781
-510 -130 -105 -390 -373 -487 -502 -51 -67 -92 -125 -92 -128 0 -6 -41 -66
-51 -75 -3 -3 -9 -12 -12 -20 -4 -8 -16 -28 -26 -45 -11 -16 -29 -47 -40 -67
-11 -20 -24 -45 -30 -55 -19 -33 -78 -187 -94 -243 -9 -30 -21 -73 -27 -95 -6
-22 -14 -97 -17 -167 -4 -99 -2 -142 12 -200 93 -395 336 -681 750 -880 229
-111 411 -171 620 -204 22 -3 96 -17 165 -31 69 -13 163 -27 210 -30 47 -3 91
-10 98 -16 16 -13 15 -56 -2 -63 -13 -5 -116 -137 -116 -149 0 -3 -12 -24 -27
-48 -57 -88 -128 -227 -157 -306 -51 -138 -81 -237 -100 -331 -8 -41 -20 -104
-28 -140 -20 -99 -17 -473 5 -571 33 -151 45 -196 56 -217 6 -11 11 -28 11
-37 0 -8 13 -43 29 -78 16 -34 32 -69 35 -77 4 -8 15 -28 26 -45 11 -16 23
-37 27 -45 10 -22 82 -121 112 -153 60 -66 163 -94 220 -61 64 38 75 115 45
326 -23 166 -15 598 13 718 32 133 52 202 73 246 11 22 20 46 20 53 0 7 6 25
14 39 8 15 24 47 36 72 39 82 99 165 181 250 124 127 240 205 421 284 147 64
174 73 333 116 83 23 179 43 215 46 36 3 93 10 127 16 57 9 71 8 145 -16 46
-14 108 -33 138 -42 171 -50 404 -156 518 -235 144 -100 312 -287 380 -424 28
-56 79 -201 115 -325 35 -120 47 -242 47 -491 0 -141 -4 -259 -10 -279 -14
-44 -25 -239 -16 -273 3 -14 20 -39 37 -56 25 -25 39 -31 74 -31 122 0 211 91
331 340 87 179 96 207 135 385 21 94 24 474 4 540 -8 29 -15 67 -15 84 0 18
-7 48 -15 68 -8 19 -15 48 -15 63 0 16 -6 41 -14 57 -8 15 -25 62 -37 103 -62
206 -185 443 -307 588 -47 55 -62 64 -61 35 1 -19 7 -31 80 -139 71 -108 81
-125 117 -199 40 -83 48 -102 106 -238 9 -21 16 -48 16 -60 0 -12 7 -31 15
-41 8 -11 15 -30 15 -42 0 -12 7 -38 15 -57 8 -20 15 -52 15 -70 0 -19 6 -50
14 -69 18 -43 23 -252 9 -398 -10 -100 -35 -225 -54 -262 -5 -10 -9 -29 -9
-43 0 -14 -14 -41 -34 -62 -22 -25 -39 -58 -49 -98 -25 -95 -99 -239 -155
-297 -18 -19 -36 -28 -58 -28 -47 0 -58 20 -50 88 13 115 34 513 29 551 -3 22
0 76 6 120 10 70 10 84 -4 111 -9 18 -14 39 -11 47 4 9 2 21 -4 28 -6 7 -17
32 -24 56 -8 24 -26 77 -40 117 -14 40 -32 128 -41 195 -31 236 -64 424 -89
512 -52 188 -91 297 -108 306 -13 7 -43 7 -91 0 -40 -6 -135 -16 -212 -22 -77
-6 -171 -15 -210 -20 -38 -4 -216 -11 -395 -14 -332 -6 -401 -12 -570 -56
-160 -41 -369 -116 -465 -168 -22 -11 -44 -21 -49 -21 -5 0 -24 -11 -42 -25
-18 -14 -35 -25 -39 -25 -3 0 -45 -31 -93 -70 -48 -38 -92 -70 -99 -70 -7 0
-13 -7 -13 -16 0 -9 -28 -47 -63 -83 -97 -103 -149 -185 -167 -264 -5 -25 -24
-66 -40 -91 -17 -25 -35 -67 -40 -93 -14 -80 -27 -120 -44 -144 -10 -15 -16
-45 -16 -84 0 -33 -5 -78 -10 -100 -9 -41 -12 -448 -4 -525 12 -104 9 -287 -5
-303 -15 -19 -56 -23 -66 -7 -4 6 -25 22 -47 36 -22 14 -45 37 -51 53 -7 15
-18 33 -25 41 -55 64 -72 88 -77 109 -4 14 -15 43 -26 65 -10 22 -19 47 -19
57 0 9 -8 38 -19 65 -26 69 -48 146 -66 239 -18 96 -16 486 3 522 7 12 12 42
12 67 0 25 4 47 9 50 5 3 11 23 14 43 2 21 12 57 20 80 9 22 18 58 20 79 2 21
9 40 16 42 6 2 11 13 11 25 0 46 53 179 90 225 21 27 41 63 45 81 4 18 18 42
31 54 13 11 24 25 24 30 0 6 16 43 35 83 19 40 35 76 35 81 0 5 11 31 24 59
13 27 26 58 30 70 10 34 140 148 283 250 86 62 218 137 303 173 41 18 94 41
117 52 193 87 435 160 623 188 41 6 102 16 135 22 33 5 87 14 120 18 34 4 70
13 82 19 12 7 38 12 57 12 31 0 128 22 336 75 185 47 237 62 307 92 17 7 33
13 36 13 5 0 31 11 177 77 19 9 43 20 52 24 10 5 22 9 28 9 5 0 45 24 87 53
43 30 89 57 103 60 26 6 90 62 90 78 0 5 17 24 38 43 20 19 51 53 67 76 17 23
41 54 54 68 44 50 72 103 104 200 l33 97 -3 189 c-1 116 -6 193 -12 199 -6 6
-11 20 -11 32 0 11 -7 33 -15 49 -8 15 -15 37 -15 48 0 20 -37 95 -56 113 -6
5 -21 29 -33 53 -11 23 -30 59 -41 81 -11 21 -20 41 -20 45 0 15 28 3 58 -24
32 -29 52 -38 52 -22 0 8 -10 18 -327 337 -125 127 -257 255 -291 285 -131
114 -163 152 -188 225 -15 46 -15 47 12 87 33 47 61 60 102 48 19 -5 34 -4 40
2 8 8 18 6 36 -5 13 -9 35 -18 48 -21 12 -2 37 -11 53 -20 17 -9 36 -16 43
-16 7 0 21 -4 32 -10 11 -5 29 -14 39 -20 11 -5 55 -23 99 -40 43 -17 87 -39
97 -50 10 -11 28 -20 40 -20 13 0 28 -7 35 -15 7 -8 24 -15 39 -15 14 0 43
-11 63 -25 20 -13 83 -49 140 -78 114 -60 149 -80 205 -118 21 -14 51 -34 67
-45 16 -10 39 -26 51 -34 13 -8 43 -32 68 -52 24 -21 49 -38 54 -38 6 0 22
-11 37 -25 15 -14 33 -25 41 -25 8 0 22 -11 31 -25 9 -14 21 -25 28 -25 6 0
52 -37 102 -83 51 -45 113 -100 139 -122 42 -35 147 -148 253 -271 19 -21 42
-55 52 -75 10 -19 38 -57 62 -85 24 -27 49 -60 56 -74 14 -30 27 -51 64 -106
15 -22 35 -60 44 -85 10 -24 26 -57 36 -74 10 -16 18 -40 18 -52 0 -12 4 -24
9 -27 5 -4 12 -24 16 -45 4 -22 13 -45 21 -52 8 -6 14 -24 14 -40 0 -15 5 -40
11 -56 14 -37 14 -258 -1 -348 -6 -38 -20 -84 -31 -101 -10 -17 -19 -39 -19
-48 0 -17 -27 -77 -39 -86 -4 -3 -20 -30 -35 -60 -31 -58 -59 -99 -116 -164
-61 -69 -160 -159 -200 -182 -22 -12 -54 -34 -72 -47 -18 -14 -43 -28 -55 -31
-11 -4 -24 -13 -27 -21 -3 -8 -14 -15 -24 -15 -11 0 -25 -7 -32 -15 -7 -8 -18
-15 -25 -15 -7 0 -18 -7 -25 -15 -7 -8 -26 -15 -42 -15 -16 0 -31 -6 -34 -15
-4 -8 -14 -15 -24 -15 -11 0 -21 -4 -25 -9 -3 -5 -19 -13 -36 -16 -18 -4 -53
-18 -79 -31 -27 -13 -72 -29 -101 -34 -28 -6 -58 -15 -65 -21 -17 -14 -115
-21 -130 -8 -8 6 -26 5 -55 -5 -24 -8 -62 -17 -84 -21 -22 -4 -49 -10 -60 -15
-34 -15 -137 -42 -195 -51 -105 -16 -183 -37 -191 -50 -8 -14 -2 -58 11 -72 4
-4 14 3 23 16 15 23 23 25 129 30 62 3 154 12 203 21 148 25 259 46 275 52 8
3 35 9 60 14 49 9 85 20 235 77 51 20 79 32 198 87 54 25 100 46 102 46 18 0
265 179 323 234 61 58 212 243 212 260 0 3 14 25 30 49 16 25 30 52 30 60 0 9
4 18 9 21 14 9 60 162 71 235 22 150 5 354 -40 481 -29 82 -44 119 -74 180
-43 89 -105 195 -160 271 -25 35 -64 90 -86 121 -22 31 -62 83 -88 115 -72 88
-338 352 -422 419 -41 32 -84 66 -95 76 -50 42 -359 254 -420 288 -22 12 -53
29 -70 39 -52 31 -226 118 -330 167 -290 134 -265 123 -360 158 -139 50 -200
66 -266 66 -57 0 -71 -4 -106 -29 -153 -111 -115 -229 148 -467 141 -129 192
-179 340 -339 130 -141 182 -214 252 -356 101 -205 140 -397 117 -576 -12
-101 -20 -124 -77 -238 -105 -209 -261 -346 -548 -485 -199 -95 -274 -122
-455 -164 -212 -48 -298 -70 -369 -92 -25 -8 -57 -14 -72 -14 -16 0 -54 -7
-86 -15 -35 -9 -102 -15 -174 -15 -78 0 -131 5 -159 15 -23 8 -54 15 -67 15
-14 0 -46 7 -72 14 -25 8 -71 22 -101 30 -30 8 -107 29 -170 46 -152 42 -249
79 -400 153 -219 107 -296 161 -435 302 -95 96 -150 184 -196 315 -20 58 -23
83 -23 240 0 131 4 188 16 225 9 28 25 79 36 115 20 64 64 156 103 215 10 17
22 38 25 48 4 9 10 17 14 17 5 0 12 10 15 22 4 11 17 31 30 42 12 12 39 42 59
69 58 76 302 321 423 424 62 53 124 114 138 135 79 120 92 179 55 256 -37 75
-122 110 -230 92z m117 -62 c33 -8 50 -19 62 -39 9 -16 19 -29 24 -29 14 0 7
-68 -10 -101 -25 -47 -30 -53 -104 -130 -37 -38 -74 -69 -83 -69 -9 0 -16 -7
-16 -15 0 -8 -10 -20 -22 -26 -27 -14 -134 -109 -222 -194 -33 -33 -79 -70
-101 -81 -22 -12 -44 -31 -50 -42 -5 -11 -20 -23 -35 -26 -29 -6 -60 -27 -109
-77 -20 -20 -60 -54 -88 -77 -29 -22 -69 -57 -90 -77 -21 -20 -92 -90 -158
-154 -143 -140 -254 -257 -393 -418 -21 -24 -52 -60 -71 -80 -18 -21 -42 -56
-52 -78 -11 -22 -39 -68 -64 -103 -25 -35 -45 -70 -45 -78 0 -8 -4 -14 -8 -14
-12 0 -99 -186 -111 -235 -5 -22 -19 -66 -30 -98 -12 -32 -19 -62 -16 -67 3
-5 0 -24 -7 -42 -8 -19 -11 -50 -8 -73 5 -36 7 -38 16 -20 6 11 22 53 34 94
13 41 36 100 51 132 16 32 29 62 29 66 0 4 11 28 24 53 95 182 273 429 470
650 185 208 630 649 643 637 10 -11 -34 -89 -79 -141 -16 -17 -28 -36 -28 -44
0 -7 -6 -15 -14 -18 -8 -3 -17 -13 -20 -22 -3 -9 -15 -30 -25 -47 -27 -42 -61
-109 -61 -122 0 -6 -7 -16 -15 -23 -8 -7 -15 -19 -15 -28 0 -8 -9 -33 -19 -56
-30 -65 -49 -170 -55 -309 -5 -108 -3 -140 14 -200 25 -94 40 -134 68 -180 12
-21 22 -42 22 -46 0 -5 16 -29 35 -54 19 -25 35 -50 35 -56 0 -16 169 -179
229 -222 31 -21 74 -51 96 -67 22 -15 54 -35 70 -44 17 -8 44 -22 60 -31 93
-48 217 -107 228 -107 6 0 35 -12 62 -25 28 -14 57 -25 66 -25 9 0 27 -8 40
-19 13 -10 49 -24 79 -31 54 -14 140 -55 140 -69 0 -10 -55 -41 -73 -41 -8 0
-20 -7 -27 -15 -7 -8 -24 -15 -37 -15 -14 0 -62 -20 -109 -45 -46 -25 -88 -45
-93 -45 -30 0 -246 -119 -330 -182 -25 -18 -55 -38 -67 -43 -13 -6 -31 -18
-41 -28 -34 -32 -105 -87 -113 -87 -5 0 -11 -8 -14 -18 -4 -10 -24 -28 -45
-40 -35 -20 -46 -21 -108 -13 -37 4 -77 8 -88 8 -11 0 -47 5 -80 12 -91 17
-313 60 -374 71 -29 6 -79 20 -110 31 -31 11 -65 23 -76 26 -11 3 -48 18 -83
34 -34 16 -66 29 -72 29 -5 0 -31 13 -57 28 -26 15 -68 36 -93 45 -41 16 -105
55 -200 121 -64 45 -217 200 -259 263 -53 78 -134 236 -148 288 -6 22 -19 68
-29 102 -23 84 -15 274 15 354 12 30 21 64 21 76 0 25 65 180 86 204 8 8 14
21 14 28 0 7 9 25 20 41 11 15 24 38 29 52 12 33 93 147 125 177 14 14 26 28
26 33 0 5 12 27 28 50 15 22 35 52 44 67 22 33 227 249 343 362 89 86 155 142
305 259 41 32 93 75 114 94 22 20 50 36 63 36 13 0 27 8 30 18 9 23 44 51 64
52 9 0 22 7 29 15 7 8 17 15 23 15 6 0 18 7 27 15 18 16 74 49 165 95 33 17
80 42 104 56 24 13 50 24 58 24 7 0 13 3 13 8 0 4 24 17 53 30 90 39 111 49
158 71 25 11 53 21 62 21 9 0 19 5 22 10 3 6 16 10 28 10 12 0 35 7 51 15 57
30 164 41 233 23z m2024 -3638 c19 -11 69 -98 69 -122 0 -7 7 -25 14 -40 8
-16 18 -48 22 -73 3 -25 10 -48 15 -50 4 -3 11 -27 14 -53 4 -26 13 -66 21
-90 21 -65 19 -79 -16 -84 -26 -4 -36 3 -86 58 -67 75 -208 200 -290 257 -33
22 -97 60 -144 85 -47 24 -89 48 -94 52 -20 19 134 66 180 54 11 -2 46 0 79 5
85 12 193 13 216 1z"/>
<path d="M8603 7153 c-20 -7 -15 -23 7 -23 11 0 20 4 20 9 0 13 -12 19 -27 14z"/>
<path d="M2476 3918 c-15 -8 -23 -58 -11 -58 4 0 18 6 33 14 26 13 69 21 103
18 30 -3 35 -46 34 -297 l-2 -251 -40 -42 c-22 -23 -45 -42 -50 -42 -6 0 -13
-7 -17 -15 -4 -12 -28 -15 -125 -15 -168 0 -159 17 -160 -286 -1 -210 1 -235
15 -232 14 3 16 33 17 243 l2 240 113 0 c97 0 116 3 126 18 7 9 22 17 33 17
21 0 72 49 94 90 10 19 14 94 15 302 2 298 0 306 -48 295 -13 -3 -44 -2 -70 2
-25 4 -54 4 -62 -1z"/>
<path d="M5634 3918 c-8 -13 -9 -1198 -1 -1198 4 0 10 0 14 0 3 0 5 255 4 566
-3 655 -11 604 95 604 69 0 112 -12 132 -37 11 -16 12 -16 12 0 0 9 -10 27
-23 40 -20 23 -31 25 -126 28 -56 2 -105 1 -107 -3z"/>
<path d="M8907 3922 c-33 -4 -127 -92 -127 -120 0 -11 -7 -25 -15 -32 -8 -7
-15 -21 -15 -31 0 -10 -5 -21 -11 -24 -5 -4 -15 -17 -20 -28 -5 -12 -21 -42
-34 -66 -14 -24 -25 -48 -25 -53 0 -5 -12 -27 -27 -51 -42 -64 -63 -105 -63
-121 0 -7 -7 -19 -15 -26 -8 -7 -15 -23 -15 -37 0 -13 -7 -26 -15 -29 -8 -4
-15 -12 -15 -19 0 -7 -7 -18 -15 -25 -8 -7 -15 -21 -15 -32 0 -10 -7 -21 -15
-24 -8 -4 -15 -17 -15 -29 0 -13 -4 -26 -9 -30 -6 -3 -20 -27 -32 -53 -43 -93
-54 -112 -61 -112 -5 0 -8 -8 -8 -17 0 -9 -6 -24 -13 -32 -21 -26 -38 -87 -30
-108 5 -10 22 -38 38 -61 23 -31 37 -42 58 -42 15 0 27 5 27 10 0 6 -12 16
-27 23 -38 16 -57 44 -64 95 -4 36 -2 45 14 54 12 6 17 17 14 28 -3 11 1 24 9
31 7 6 25 35 39 64 14 30 30 57 35 60 6 3 10 15 10 26 0 11 7 22 15 25 8 4 15
14 15 24 0 10 7 23 15 30 8 7 15 21 15 31 0 10 4 21 10 24 5 3 21 30 36 58 14
29 34 66 44 82 11 17 23 37 26 45 13 32 37 86 45 100 5 8 13 25 18 37 6 11 15
24 20 28 6 3 11 14 11 24 0 10 7 24 15 31 8 7 15 20 15 30 0 10 7 20 15 24 8
3 15 14 15 24 0 11 7 25 15 32 8 7 15 18 15 24 0 17 59 70 95 85 17 7 71 15
120 17 76 4 96 2 130 -16 21 -11 44 -20 50 -20 5 -1 19 -13 30 -27 11 -14 28
-34 38 -44 16 -18 17 -55 17 -537 -1 -458 1 -517 15 -520 13 -3 15 54 15 518
0 454 -2 521 -15 526 -8 4 -15 18 -15 33 0 30 -42 81 -86 104 -28 14 -227 27
-297 19z"/>
<path d="M1033 3873 c-34 -35 -69 -91 -118 -189 -38 -76 -72 -141 -75 -144 -3
-3 -23 -39 -44 -80 -20 -41 -46 -88 -57 -105 -10 -16 -21 -37 -25 -45 -3 -8
-9 -22 -14 -30 -16 -26 -47 -93 -66 -140 -10 -25 -24 -50 -31 -56 -7 -6 -13
-20 -13 -32 0 -11 -7 -22 -15 -26 -8 -3 -15 -10 -15 -15 0 -6 -13 -30 -30 -54
-26 -39 -30 -54 -30 -111 0 -36 4 -66 9 -66 5 0 13 -9 16 -20 9 -27 48 -52 69
-44 19 7 22 34 4 34 -7 0 -25 12 -40 25 -24 21 -28 32 -28 79 0 33 5 58 13 63
6 4 22 28 35 53 27 54 35 68 50 95 7 11 15 27 18 35 3 8 10 22 15 30 5 8 12
22 15 30 3 8 9 22 14 30 5 8 27 52 50 97 22 45 45 85 50 88 6 3 10 17 10 30 0
12 6 25 13 28 8 3 37 52 66 109 29 56 56 110 61 118 4 8 18 35 31 60 42 84 70
121 97 131 15 6 36 16 47 21 10 6 58 13 106 16 70 4 91 1 110 -12 13 -9 31
-16 40 -16 27 0 78 -49 87 -83 10 -37 28 -46 37 -17 7 23 -7 49 -52 97 -48 51
-68 57 -220 61 l-142 4 -48 -49z"/>
<path d="M1692 3906 c-3 -6 -5 -133 -4 -283 2 -254 3 -276 22 -314 12 -22 30
-49 40 -59 24 -24 70 -27 70 -5 0 8 -6 15 -13 15 -7 0 -29 16 -47 35 l-35 36
-5 252 c-7 302 -6 307 71 307 35 0 51 -4 55 -15 11 -27 34 -17 34 14 l0 29
-91 -1 c-50 -1 -93 -6 -97 -11z"/>
<path d="M2840 3903 c-3 -255 1 -1177 6 -1184 23 -38 26 26 25 558 -1 308 1
572 5 587 6 25 8 26 83 26 80 -1 121 -19 121 -54 0 -9 7 -19 15 -22 8 -4 15
-17 15 -30 0 -15 6 -24 15 -24 8 0 15 9 15 20 0 11 -7 23 -15 26 -8 4 -15 17
-15 30 0 14 -10 38 -21 54 l-22 29 -113 -1 c-88 -1 -114 -4 -114 -15z"/>
<path d="M3997 3902 c-9 -10 -17 -26 -17 -34 0 -9 -7 -21 -15 -28 -8 -7 -15
-23 -15 -37 0 -13 -7 -26 -15 -29 -8 -4 -15 -14 -15 -24 0 -10 -7 -25 -15 -34
-8 -8 -15 -22 -15 -32 0 -10 -6 -25 -13 -33 -8 -9 -30 -55 -51 -104 -59 -139
-98 -222 -107 -225 -5 -2 -9 -10 -9 -17 0 -8 -20 -53 -44 -102 -84 -170 -101
-206 -101 -222 0 -9 -10 -17 -22 -19 -16 -2 -23 2 -23 12 0 9 -7 16 -15 16
-22 0 -18 -11 14 -43 l29 -29 22 24 c11 13 27 30 35 39 8 9 15 21 15 26 0 6
16 45 35 86 19 41 35 80 35 86 0 6 5 11 10 11 6 0 10 7 10 15 0 8 20 54 45
102 25 48 45 95 45 104 0 9 7 19 15 23 8 3 15 16 15 29 0 14 7 30 15 37 8 7
15 20 15 30 0 10 7 23 15 30 8 7 15 19 15 27 0 8 7 27 15 41 8 15 37 75 65
134 27 59 59 112 69 118 30 15 156 13 170 -4 8 -10 11 -172 11 -586 0 -315 2
-575 4 -578 3 -3 11 0 18 6 10 8 12 130 8 604 l-5 593 -116 3 c-102 2 -117 0
-132 -16z"/>
<path d="M4924 3878 c-25 -23 -53 -58 -63 -77 -10 -20 -40 -79 -66 -131 -27
-52 -51 -97 -54 -100 -3 -3 -16 -25 -29 -50 -25 -49 -33 -64 -50 -95 -6 -11
-23 -45 -38 -75 -15 -30 -47 -91 -72 -135 -25 -44 -59 -105 -74 -135 -31 -58
-42 -79 -58 -107 -6 -10 -13 -25 -16 -33 -3 -8 -12 -27 -20 -42 -18 -34 -18
-82 1 -98 8 -7 15 -18 15 -25 0 -19 60 -67 79 -63 20 4 28 38 8 38 -8 0 -26 9
-41 21 -22 17 -26 28 -26 69 0 51 8 76 40 125 11 17 22 37 26 45 3 8 10 22 15
30 5 8 14 26 20 40 5 13 13 27 17 30 4 3 45 79 91 170 46 91 98 192 117 225
19 33 39 72 45 88 6 15 15 27 20 27 5 0 9 8 9 19 0 10 7 24 15 31 8 7 15 21
15 31 0 10 5 21 10 24 6 4 16 21 24 39 33 80 119 126 234 126 66 0 157 -26
188 -53 15 -13 29 -25 59 -47 16 -11 17 -11 8 0 -7 8 -13 22 -13 32 0 21 -55
76 -88 89 -13 5 -86 9 -163 9 l-139 0 -46 -42z"/>
<path d="M6394 3895 c-9 -35 -1 -39 37 -20 25 14 47 16 96 11 59 -6 63 -5 63
14 0 19 -6 20 -95 20 -93 0 -95 0 -101 -25z"/>
<path d="M7303 3891 c-43 -31 -83 -97 -83 -136 0 -38 17 -38 23 0 7 45 54 88
126 114 53 20 73 21 401 19 l345 -3 11 -45 c14 -54 27 -35 22 31 l-3 44 -401
3 -401 2 -40 -29z"/>
<path d="M9528 3323 c-2 -329 -1 -601 2 -605 3 -4 11 -8 18 -10 11 -2 13 101
12 569 -1 393 3 579 10 593 9 17 21 20 78 20 37 0 76 -3 87 -6 20 -5 45 -52
130 -244 21 -47 42 -89 47 -94 4 -6 8 -18 8 -27 0 -9 7 -22 15 -29 8 -7 15
-20 15 -30 0 -10 7 -23 15 -30 8 -7 15 -23 15 -35 0 -12 7 -28 15 -35 8 -7 15
-20 15 -30 0 -10 7 -23 15 -30 8 -7 15 -18 15 -25 0 -13 56 -124 71 -139 5 -6
9 -17 9 -25 0 -8 8 -33 19 -55 10 -23 21 -49 24 -58 4 -10 11 -18 17 -18 15 0
12 41 -5 74 -8 15 -15 34 -15 41 0 7 -7 18 -15 25 -8 7 -15 19 -15 28 0 22
-40 102 -51 102 -5 0 -9 8 -9 18 0 9 -25 66 -55 127 -30 60 -55 114 -55 119 0
5 -6 17 -13 25 -7 9 -26 49 -42 89 -16 40 -32 75 -37 78 -4 3 -8 16 -8 28 0
13 -7 29 -15 36 -8 7 -15 20 -15 30 0 10 -7 23 -15 30 -8 7 -15 21 -15 31 0
11 -9 28 -20 39 -18 18 -33 20 -135 20 l-115 0 -2 -597z"/>
<path d="M10687 3902 c-10 -10 -17 -24 -17 -31 0 -7 -20 -51 -44 -99 -88 -175
-166 -341 -166 -351 0 -6 -4 -19 -9 -29 -47 -91 -91 -186 -91 -198 0 -8 -4
-14 -9 -14 -5 0 -12 -13 -16 -30 -4 -16 -11 -30 -16 -30 -5 0 -9 -9 -9 -19 0
-11 -4 -22 -9 -25 -11 -7 -51 -88 -51 -104 0 -7 6 -12 13 -12 12 0 34 34 51
80 4 8 17 35 31 59 14 24 25 52 25 62 0 9 7 19 15 23 8 3 15 14 15 24 0 11 7
25 15 32 8 7 15 17 15 23 0 5 12 35 26 66 14 31 33 72 41 91 9 19 33 72 54
117 22 44 39 86 39 91 0 6 3 12 8 14 9 4 52 91 52 107 0 6 4 11 8 11 4 0 16
23 27 51 13 34 29 56 47 65 37 19 128 18 156 -2 l23 -16 -1 -566 c-1 -462 1
-568 12 -570 11 -2 13 104 13 585 0 324 -4 594 -8 601 -6 8 -41 12 -116 12
-92 0 -110 -3 -124 -18z"/>
<path d="M11154 3909 c-2 -4 -5 -274 -5 -600 0 -591 1 -608 31 -609 3 0 4 253
2 562 -2 310 -1 577 3 594 5 30 8 32 63 37 33 4 61 2 67 -4 6 -6 11 -219 12
-592 2 -517 4 -582 18 -582 13 0 15 66 16 593 1 326 -1 596 -5 600 -10 9 -196
11 -202 1z"/>
<path d="M11573 3903 c-9 -24 11 -35 41 -23 17 6 160 10 379 10 293 0 357 -3
381 -15 15 -8 34 -15 40 -15 6 0 33 -20 59 -45 42 -40 47 -42 47 -21 0 31 -63
102 -103 115 -21 7 -172 10 -436 9 -334 -1 -404 -4 -408 -15z"/>
<path d="M1862 3630 c2 -143 7 -212 16 -227 13 -23 13 -23 291 -23 221 0 281
3 290 13 16 20 25 73 13 81 -5 3 -13 -10 -16 -30 -7 -34 -9 -35 -39 -28 -18 4
-138 8 -267 8 -203 1 -237 3 -253 17 -16 15 -19 38 -22 199 -2 100 -7 185 -10
188 -4 4 -5 -85 -3 -198z"/>
<path d="M3135 3741 c-7 -13 12 -51 25 -51 6 0 10 -11 10 -24 0 -13 7 -29 15
-36 8 -7 15 -18 15 -24 0 -16 44 -105 64 -131 11 -15 15 -16 16 -5 0 22 -25
89 -38 102 -7 7 -12 20 -12 30 0 10 -7 21 -15 24 -8 4 -15 17 -15 30 0 12 -6
27 -14 31 -8 4 -16 19 -18 32 -3 26 -22 39 -33 22z"/>
<path d="M8128 3745 c-2 -3 -157 -7 -344 -9 -186 -2 -348 -7 -359 -12 -36 -14
-45 -47 -25 -100 14 -36 23 -24 30 39 5 50 6 52 35 51 17 -1 174 -3 349 -3
313 -2 357 2 330 29 -6 6 -13 8 -16 5z"/>
<path d="M11576 3743 c-3 -3 -6 -12 -6 -20 0 -11 63 -13 371 -13 204 1 372 0
374 -2 6 -6 8 -358 2 -364 -3 -3 -169 -7 -369 -9 -200 -2 -367 -3 -371 -4 -14
-2 -3 -46 11 -45 6 1 171 2 366 3 l355 1 28 24 28 24 1 164 c1 89 -2 173 -7
185 -17 45 -33 47 -404 48 -193 1 -356 4 -362 8 -5 3 -13 4 -17 0z"/>
<path d="M12530 3748 c0 -2 -2 -108 -4 -235 -3 -191 -1 -233 10 -233 11 0 14
43 14 229 0 143 -4 232 -10 236 -5 3 -10 5 -10 3z"/>
<path d="M1190 3731 c-23 -7 -22 -8 13 -15 47 -9 107 2 86 15 -16 10 -63 10
-99 0z"/>
<path d="M5080 3731 l-25 -7 28 -8 c16 -4 36 -4 46 -1 9 3 25 -1 35 -8 16 -12
17 -47 19 -502 2 -395 5 -490 15 -490 11 0 13 95 13 495 -1 455 -2 496 -18
508 -9 6 -27 12 -39 12 -12 0 -28 2 -36 4 -7 2 -24 1 -38 -3z"/>
<path d="M5942 3729 c2 -7 10 -15 17 -17 8 -3 12 1 9 9 -2 7 -10 15 -17 17 -8
3 -12 -1 -9 -9z"/>
<path d="M8991 3731 c-22 -14 17 -21 64 -11 38 7 38 8 8 9 -17 0 -37 3 -45 6
-7 3 -19 1 -27 -4z"/>
<path d="M1122 3680 c-12 -16 -22 -35 -22 -43 0 -7 -5 -18 -11 -24 -12 -12
-21 -27 -64 -108 -14 -27 -41 -77 -60 -110 -19 -33 -44 -80 -56 -105 -12 -25
-25 -52 -30 -60 -4 -8 -18 -35 -29 -60 -12 -25 -26 -52 -31 -60 -5 -8 -12 -22
-15 -30 -3 -8 -10 -22 -15 -30 -5 -8 -15 -26 -21 -40 -7 -14 -18 -31 -25 -38
-17 -18 -16 -44 1 -68 13 -17 30 -19 193 -22 211 -4 234 -10 229 -62 -2 -19
-7 -50 -11 -69 -7 -29 -6 -33 11 -29 16 3 18 13 17 86 -1 126 4 124 -223 121
l-185 -2 -3 23 c-2 14 3 27 12 32 9 5 16 20 16 32 0 13 7 26 15 30 8 3 15 14
15 24 0 10 5 23 11 29 12 12 38 60 108 200 23 45 46 85 51 88 6 3 10 15 10 26
0 11 7 22 15 25 8 4 15 17 15 30 0 14 7 27 15 30 8 4 15 12 15 20 0 7 14 33
30 57 17 25 30 51 30 58 0 8 7 23 15 33 16 22 20 46 7 46 -5 0 -18 -13 -30
-30z"/>
<path d="M8930 3696 c0 -7 -7 -19 -15 -26 -8 -7 -15 -21 -15 -31 0 -11 -4 -19
-9 -19 -5 0 -14 -12 -20 -27 -6 -16 -16 -37 -22 -48 -23 -39 -29 -50 -35 -65
-3 -8 -10 -22 -15 -30 -5 -8 -12 -22 -15 -30 -21 -50 -47 -101 -55 -106 -5 -3
-9 -14 -9 -25 0 -11 -7 -22 -15 -25 -8 -4 -15 -12 -15 -20 0 -7 -13 -33 -30
-57 -16 -25 -30 -52 -30 -60 0 -9 -4 -18 -9 -21 -14 -9 -50 -83 -44 -90 4 -3
-2 -15 -12 -26 -10 -11 -16 -23 -12 -26 10 -11 21 3 55 68 19 34 42 77 53 93
10 17 23 40 28 52 5 11 15 24 20 28 6 3 11 15 11 26 0 11 7 22 15 25 8 4 15
17 15 30 0 14 7 27 15 30 8 4 15 14 15 23 0 9 4 21 9 26 13 14 171 324 171
335 0 6 -7 10 -15 10 -8 0 -15 -6 -15 -14z"/>
<path d="M9106 3663 c-7 -57 2 -941 10 -954 3 -5 8 -9 12 -9 10 0 16 969 7
993 -12 30 -22 19 -29 -30z"/>
<path d="M5007 3683 c-13 -12 -7 -43 8 -43 9 0 15 9 15 25 0 24 -10 32 -23 18z"/>
<path d="M1319 3664 c-3 -132 1 -947 5 -951 7 -8 7 -43 8 510 1 246 -2 450 -5
454 -4 3 -7 -2 -8 -13z"/>
<path d="M6000 3636 c0 -9 4 -16 9 -16 5 0 11 -9 14 -20 3 -11 10 -20 16 -20
19 0 12 24 -14 49 -20 18 -25 20 -25 7z"/>
<path d="M4977 3623 c-13 -12 -7 -33 8 -33 8 0 15 9 15 20 0 20 -11 26 -23 13z"/>
<path d="M6390 3541 c0 -41 4 -71 10 -71 6 0 10 28 10 64 0 36 -4 68 -10 71
-6 4 -10 -20 -10 -64z"/>
<path d="M5814 3585 c-3 -8 -3 -19 0 -24 9 -13 36 -2 36 14 0 19 -30 27 -36
10z"/>
<path d="M4950 3554 c0 -14 4 -23 10 -19 6 3 10 15 10 26 0 10 -4 19 -10 19
-5 0 -10 -12 -10 -26z"/>
<path d="M6057 3563 c-4 -7 -2 -15 3 -18 6 -4 15 -18 20 -31 11 -29 30 -32 30
-4 0 11 -6 20 -13 20 -8 0 -18 10 -24 22 -6 14 -12 18 -16 11z"/>
<path d="M5382 3518 c-4 -13 -5 -135 -2 -273 3 -137 8 -239 13 -225 10 35 15
510 5 516 -4 3 -11 -5 -16 -18z"/>
<path d="M7406 3532 c-12 -19 -9 -122 4 -137 11 -13 57 -15 311 -15 282 0 301
-1 338 -21 22 -11 51 -35 65 -54 l26 -34 0 -219 0 -220 -41 -41 c-25 -25 -51
-41 -65 -41 -15 0 -24 -6 -24 -15 0 -10 10 -15 30 -15 17 0 30 4 30 9 0 5 16
19 35 31 19 12 35 27 35 35 0 7 7 18 15 25 13 10 15 50 15 240 0 190 -2 230
-15 240 -8 7 -15 18 -15 24 0 24 -62 75 -108 90 -38 12 -95 14 -307 10 -143
-2 -269 -5 -280 -6 -18 -3 -20 4 -23 52 -3 55 -14 81 -26 62z"/>
<path d="M4914 3515 c-7 -17 4 -37 17 -30 12 8 12 45 -1 45 -6 0 -13 -7 -16
-15z"/>
<path d="M5870 3512 c0 -11 14 -38 30 -60 17 -23 30 -44 30 -47 0 -7 42 -68
51 -75 4 -3 8 -14 10 -24 2 -11 10 -21 17 -24 17 -5 15 37 -2 44 -8 3 -17 16
-20 29 -8 30 -66 125 -77 125 -5 0 -9 11 -9 25 0 16 -6 25 -15 25 -8 0 -15 -8
-15 -18z"/>
<path d="M3036 3491 c-3 -5 8 -23 26 -40 17 -17 29 -34 25 -37 -4 -4 1 -21 10
-38 38 -73 43 -85 43 -99 0 -8 7 -17 15 -21 8 -3 15 -17 15 -31 0 -14 4 -25
10 -25 5 0 12 -11 16 -25 3 -13 12 -29 20 -36 8 -6 14 -19 14 -27 0 -14 50
-129 81 -184 5 -10 9 -24 9 -32 0 -7 7 -19 15 -26 8 -7 15 -23 15 -35 0 -13 4
-25 9 -27 4 -1 18 -24 29 -50 12 -28 27 -48 36 -48 20 0 21 34 1 50 -8 7 -15
19 -15 27 0 8 -20 56 -45 107 -25 52 -45 100 -45 109 0 8 -7 20 -15 27 -8 7
-15 20 -15 30 0 10 -7 23 -15 30 -8 7 -15 18 -15 24 0 6 -27 65 -60 131 -33
66 -60 125 -60 131 0 6 -9 19 -20 29 -11 10 -20 25 -20 34 0 38 -49 77 -64 52z"/>
<path d="M9725 3470 c-12 -24 -15 -79 -15 -323 0 -162 3 -323 7 -358 l7 -64 7
50 c4 28 8 188 8 358 1 254 3 307 15 307 7 0 16 -9 19 -20 5 -21 27 -28 27 -8
0 22 -35 87 -47 88 -7 0 -19 -13 -28 -30z"/>
<path d="M5817 3484 c-9 -9 -8 -70 2 -104 7 -23 8 -21 14 15 7 43 -3 101 -16
89z"/>
<path d="M3994 3449 c-17 -33 -9 -48 26 -49 13 0 15 -43 15 -325 -1 -178 -4
-327 -8 -331 -9 -10 12 -34 30 -34 21 0 15 728 -6 753 -20 25 -39 21 -57 -14z"/>
<path d="M10690 3465 c-10 -12 -7 -17 14 -26 31 -14 53 -1 43 25 -8 20 -41 21
-57 1z"/>
<path d="M4885 3460 c-8 -13 4 -32 16 -25 12 8 12 35 0 35 -6 0 -13 -4 -16
-10z"/>
<path d="M6116 3462 c-3 -6 -1 -14 5 -17 15 -10 25 3 12 16 -7 7 -13 7 -17 1z"/>
<path d="M6390 3430 c0 -11 5 -20 10 -20 6 0 10 9 10 20 0 11 -4 20 -10 20 -5
0 -10 -9 -10 -20z"/>
<path d="M3270 3432 c0 -6 7 -12 15 -16 8 -3 15 -15 15 -26 0 -11 4 -28 9 -38
5 -9 12 -25 15 -34 3 -10 10 -18 16 -18 15 0 12 47 -4 53 -7 3 -18 23 -23 44
-5 23 -15 39 -26 41 -9 2 -17 -1 -17 -6z"/>
<path d="M3957 3384 c-4 -4 -7 -16 -7 -27 0 -11 -7 -25 -17 -32 -10 -7 -14
-19 -10 -29 9 -22 27 -11 27 15 0 10 4 19 9 19 14 0 25 40 14 51 -5 5 -12 6
-16 3z"/>
<path d="M9800 3370 c0 -24 63 -143 79 -148 18 -6 13 22 -14 69 -25 44 -34 63
-41 87 -6 19 -24 14 -24 -8z"/>
<path d="M10631 3347 c-23 -47 -26 -67 -12 -67 12 0 51 63 51 83 0 33 -19 25
-39 -16z"/>
<path d="M6386 3365 c-9 -26 -7 -208 4 -225 18 -29 25 4 22 113 -3 107 -12
147 -26 112z"/>
<path d="M10728 3338 c-11 -35 -13 -93 -8 -303 4 -143 3 -264 -2 -269 -13 -16
-9 -38 10 -52 31 -24 42 -17 30 19 -6 17 -10 39 -10 47 3 177 3 592 -1 596 -2
3 -11 -14 -19 -38z"/>
<path d="M7250 3297 c0 -21 34 -56 77 -80 37 -21 48 -22 338 -22 l300 0 8 -99
c5 -55 5 -115 0 -134 l-8 -34 -353 1 c-316 2 -353 0 -358 -14 -8 -20 7 -36 32
-36 10 0 164 1 342 1 272 0 327 3 346 15 23 15 23 20 24 158 0 78 -4 150 -9
159 -9 17 -34 18 -325 18 -270 0 -315 2 -320 15 -4 8 -12 15 -18 15 -7 0 -23
11 -36 25 -26 28 -40 32 -40 12z"/>
<path d="M3352 3268 c2 -13 8 -23 13 -23 6 0 11 10 13 23 2 15 -2 22 -13 22
-11 0 -15 -7 -13 -22z"/>
<path d="M3897 3263 c-13 -12 -7 -33 8 -33 8 0 15 9 15 20 0 20 -11 26 -23 13z"/>
<path d="M4794 3256 c-8 -22 3 -33 18 -18 9 9 9 15 0 24 -9 9 -13 7 -18 -6z"/>
<path d="M6020 3255 c0 -9 7 -18 15 -21 8 -4 15 -14 15 -24 0 -10 7 -23 15
-30 8 -7 15 -18 15 -25 0 -7 7 -15 15 -19 8 -3 15 -10 15 -16 0 -20 75 -112
78 -96 2 9 -8 28 -22 43 -14 15 -26 35 -26 44 0 9 -7 22 -15 29 -8 7 -15 17
-15 21 0 13 -73 109 -82 109 -4 0 -8 -7 -8 -15z"/>
<path d="M10587 3263 c-13 -12 -7 -43 8 -43 9 0 15 9 15 25 0 24 -10 32 -23
18z"/>
<path d="M6230 3257 c0 -2 11 -16 24 -32 15 -17 26 -23 30 -16 4 6 0 14 -8 17
-9 3 -16 12 -16 20 0 8 -7 14 -15 14 -8 0 -15 -2 -15 -3z"/>
<path d="M3380 3214 c0 -13 7 -27 15 -30 8 -4 15 -16 15 -29 0 -12 7 -28 15
-35 8 -7 15 -18 15 -26 0 -18 40 -84 51 -84 15 0 10 36 -6 50 -8 7 -15 20 -15
30 0 10 -7 23 -15 30 -8 7 -15 21 -15 32 0 10 -7 21 -15 24 -8 4 -15 16 -15
29 0 13 -7 25 -15 29 -11 4 -15 -2 -15 -20z"/>
<path d="M12475 3208 c-36 -43 -51 -51 -104 -58 -25 -3 -46 -10 -48 -17 -6
-17 47 -29 66 -14 9 6 28 17 44 24 15 6 27 15 27 19 0 4 6 8 14 8 14 0 46 41
46 60 0 19 -18 10 -45 -22z"/>
<path d="M1832 3218 c3 -9 39 -15 114 -18 l109 -5 2 -230 c1 -126 2 -236 3
-242 0 -7 8 -13 18 -13 16 0 17 17 14 247 -2 217 -5 250 -19 261 -11 8 -55 12
-131 12 -86 0 -113 -3 -110 -12z"/>
<path d="M3866 3203 c-12 -12 -6 -33 9 -33 8 0 15 6 15 14 0 17 -14 28 -24 19z"/>
<path d="M9890 3192 c0 -11 7 -25 15 -32 8 -7 15 -23 15 -35 0 -28 38 -115 50
-115 20 0 18 21 -7 76 -14 33 -30 61 -34 64 -4 3 -9 16 -10 29 -5 30 -29 41
-29 13z"/>
<path d="M10557 3203 c-4 -3 -7 -15 -7 -25 0 -10 -7 -21 -15 -24 -8 -4 -15
-16 -15 -29 0 -12 -7 -28 -15 -35 -8 -7 -15 -21 -15 -31 0 -11 7 -19 15 -19 8
0 15 6 15 14 0 7 7 19 15 26 8 7 15 23 15 35 0 12 7 28 15 35 8 7 15 23 15 36
0 23 -10 31 -23 17z"/>
<path d="M6295 3170 c-5 -8 -2 -18 7 -24 8 -6 17 -19 21 -29 4 -10 11 -15 17
-12 14 9 12 16 -14 49 -17 20 -26 25 -31 16z"/>
<path d="M4730 3155 c0 -8 7 -15 15 -15 8 0 15 7 15 15 0 8 -7 15 -15 15 -8 0
-15 -7 -15 -15z"/>
<path d="M3834 3135 c-7 -29 -1 -41 15 -30 14 8 14 55 1 55 -5 0 -12 -11 -16
-25z"/>
<path d="M11820 3141 c-26 -18 0 -26 83 -27 107 -1 106 0 117 -26 15 -34 33
-62 48 -71 6 -4 12 -12 12 -18 0 -13 72 -109 82 -109 4 0 8 -5 8 -11 0 -6 20
-37 45 -69 25 -32 45 -63 45 -69 0 -10 39 -31 56 -31 12 0 1 28 -19 50 -12 14
-40 49 -61 79 -21 30 -42 59 -47 65 -27 33 -79 106 -79 111 0 4 -21 33 -46 66
-35 46 -51 59 -72 59 -15 0 -56 3 -92 6 -37 3 -71 1 -80 -5z"/>
<path d="M12250 3130 c-14 -9 -9 -29 21 -80 5 -8 13 -24 18 -35 5 -11 19 -32
32 -46 25 -28 45 -55 56 -77 3 -8 19 -28 34 -45 16 -17 29 -36 29 -42 0 -6 9
-18 20 -28 11 -9 23 -31 27 -47 6 -35 38 -42 46 -11 3 14 -5 26 -29 43 -19 13
-34 28 -34 35 0 6 -6 18 -12 25 -7 8 -17 21 -23 30 -5 9 -37 55 -70 103 -81
117 -96 143 -85 150 14 9 12 35 -2 35 -7 0 -20 -4 -28 -10z"/>
<path d="M4706 3104 c-8 -22 1 -31 16 -16 9 9 9 15 1 23 -7 7 -12 5 -17 -7z"/>
<path d="M3792 3031 c-23 -51 -27 -71 -14 -71 8 0 52 93 52 110 0 24 -17 7
-38 -39z"/>
<path d="M6375 3070 c-8 -14 3 -30 21 -30 8 0 14 9 14 20 0 21 -24 28 -35 10z"/>
<path d="M4680 3049 c0 -11 5 -17 10 -14 6 3 10 13 10 21 0 8 -4 14 -10 14 -5
0 -10 -9 -10 -21z"/>
<path d="M10467 3023 c-4 -3 -7 -17 -7 -30 0 -13 -7 -26 -15 -29 -8 -4 -15
-16 -15 -28 0 -11 -7 -30 -15 -40 -8 -11 -15 -27 -15 -37 0 -9 -7 -22 -15 -29
-8 -7 -15 -22 -15 -34 0 -12 -9 -29 -20 -39 -21 -18 -19 -37 4 -37 8 0 16 8
20 18 3 9 10 24 15 32 5 8 16 31 24 50 8 19 31 69 52 112 21 42 34 81 31 87
-8 12 -20 14 -29 4z"/>
<path d="M4646 3011 c-4 -6 -3 -19 3 -28 9 -17 10 -17 17 0 8 21 -10 45 -20
28z"/>
<path d="M9980 2976 c0 -13 7 -29 15 -36 8 -7 15 -20 15 -30 0 -10 7 -23 15
-30 8 -7 15 -20 15 -30 0 -10 7 -20 15 -24 8 -3 15 -15 15 -26 0 -11 4 -28 9
-38 5 -9 12 -25 15 -35 6 -20 37 -20 43 0 3 7 -5 20 -16 30 -12 9 -21 27 -21
39 0 12 -7 24 -15 28 -8 3 -15 16 -15 30 0 13 -7 26 -15 30 -8 3 -15 16 -15
30 0 14 -5 28 -11 31 -5 4 -14 18 -19 31 -12 31 -30 31 -30 0z"/>
<path d="M6200 2976 c0 -8 4 -17 10 -21 5 -3 21 -28 36 -55 15 -28 31 -50 36
-50 4 0 8 -11 8 -24 0 -13 7 -29 15 -36 8 -7 15 -16 15 -21 0 -12 38 -49 50
-49 16 0 12 20 -5 26 -8 4 -15 12 -15 19 0 7 -7 18 -15 25 -8 7 -15 20 -15 30
0 10 -6 20 -14 23 -12 5 -27 30 -73 120 -16 29 -33 36 -33 13z"/>
<path d="M4620 2931 c0 -43 33 -51 220 -51 96 0 185 -3 198 -6 16 -5 25 -17
30 -38 l6 -31 7 40 c6 33 3 44 -14 63 -21 22 -25 23 -221 21 -139 -1 -201 2
-204 10 -6 18 -22 12 -22 -8z"/>
<path d="M3747 2933 c-4 -3 -7 -14 -7 -23 0 -10 -7 -23 -15 -30 -8 -7 -15 -20
-15 -30 0 -10 -7 -20 -15 -24 -18 -7 -21 -60 -2 -54 6 3 14 15 15 29 2 13 10
28 18 32 8 4 14 19 14 31 0 13 7 26 15 30 8 3 15 15 15 26 0 20 -11 26 -23 13z"/>
<path d="M8550 2921 c0 -35 26 -41 216 -43 l187 -3 12 -34 c9 -28 13 -31 18
-17 13 32 7 73 -11 89 -16 14 -44 17 -186 17 -100 0 -175 -4 -187 -11 -15 -7
-24 -7 -35 2 -11 9 -14 9 -14 0z"/>
<path d="M5067 2774 c-10 -11 -9 -54 2 -54 6 0 12 4 15 9 8 12 -8 54 -17 45z"/>
<path d="M8967 2764 c-4 -4 -7 -18 -7 -31 0 -28 23 -27 28 1 4 20 -11 40 -21
30z"/>
<path d="M3652 2738 c2 -13 8 -23 13 -23 6 0 11 10 13 23 2 15 -2 22 -13 22
-11 0 -15 -7 -13 -22z"/>
<path d="M5377 2731 c-4 -17 -2 -18 14 -8 22 14 25 27 5 27 -7 0 -16 -9 -19
-19z"/>
<path d="M8251 2311 c-11 -7 -13 -61 -12 -282 0 -151 1 -280 1 -286 0 -18 390
-19 408 -1 18 18 15 79 -5 94 -22 16 -91 17 -202 4 -62 -8 -86 -8 -97 1 -12
10 -13 48 -8 228 7 234 8 233 -46 245 -14 4 -31 2 -39 -3z"/>
<path d="M9056 2304 c-14 -13 -16 -54 -16 -294 0 -244 2 -279 16 -284 25 -10
49 -7 70 8 18 14 19 29 20 286 1 263 0 272 -20 286 -27 18 -51 18 -70 -2z"/>
<path d="M2995 2300 c-2 -4 -5 -132 -6 -284 -1 -301 -2 -296 52 -296 43 0 53
21 46 104 -5 65 -3 77 14 92 16 15 25 16 58 6 79 -24 180 -10 222 31 44 43 59
84 59 162 0 82 -18 125 -68 162 -25 18 -45 21 -200 25 -95 2 -175 1 -177 -2z
m283 -106 c47 -7 72 -36 72 -83 0 -67 -19 -79 -137 -84 -56 -2 -106 -1 -111 2
-6 3 -11 36 -13 73 -5 91 8 106 93 101 35 -2 78 -6 96 -9z"/>
<path d="M4040 2300 c-137 -14 -210 -115 -210 -289 0 -129 44 -217 132 -262
55 -28 252 -28 307 1 58 29 93 73 118 147 29 83 29 142 2 229 -39 127 -94 171
-220 176 -41 2 -99 1 -129 -2z m180 -114 c66 -19 90 -65 90 -172 0 -68 -4 -87
-23 -115 -33 -49 -60 -59 -165 -59 -128 0 -153 13 -182 91 -27 71 -24 121 11
194 21 45 29 51 69 62 61 16 146 15 200 -1z"/>
<path d="M4795 2302 c-3 -3 -5 -130 -5 -282 0 -296 1 -300 51 -300 49 0 60 22
53 108 -6 68 -4 79 13 94 17 16 24 16 70 4 68 -18 67 -17 109 -94 50 -91 71
-112 110 -112 17 0 37 6 43 14 10 12 6 44 -8 56 -15 12 -81 116 -81 127 0 6
12 22 28 35 51 44 62 71 62 158 0 68 -4 86 -24 118 -41 65 -52 69 -243 74 -95
3 -175 3 -178 0z m233 -104 c102 -1 122 -16 122 -89 0 -74 -12 -82 -126 -85
-139 -4 -134 -7 -134 81 0 81 16 111 51 100 11 -4 50 -7 87 -7z"/>
<path d="M5655 2300 c-11 -20 -14 -72 -5 -89 12 -24 32 -26 95 -9 34 9 48 9
56 1 8 -8 12 -82 13 -240 l1 -227 26 -10 c34 -12 76 -1 81 21 2 10 1 115 -3
233 -5 158 -4 217 4 222 7 5 26 5 42 1 17 -4 50 -8 75 -8 40 0 45 3 54 28 6
17 6 37 0 54 l-9 27 -214 1 c-117 0 -214 -2 -216 -5z"/>
<path d="M6495 2300 c-1 -3 -4 -130 -6 -283 -4 -298 -4 -297 46 -297 45 0 50
13 50 124 0 58 5 109 10 115 7 7 45 6 114 -1 97 -11 105 -10 117 7 12 16 12
41 -2 84 -4 11 -26 13 -115 9 -125 -6 -129 -4 -129 74 0 73 11 80 110 68 133
-15 194 -13 213 8 21 23 22 52 3 77 -13 18 -29 20 -211 20 -108 0 -198 -2
-200 -5z"/>
<path d="M7520 2300 c-102 -5 -137 -18 -181 -67 -29 -31 -41 -61 -60 -146 -10
-48 -10 -73 0 -135 19 -112 56 -171 125 -203 61 -27 251 -27 305 1 80 41 141
152 141 258 0 60 -32 172 -61 212 -52 71 -109 88 -269 80z m181 -136 c12 -10
30 -37 41 -59 43 -83 4 -228 -69 -256 -31 -12 -204 -12 -236 0 -13 5 -34 25
-46 44 -44 71 -18 274 36 291 10 3 71 4 136 2 98 -3 121 -6 138 -22z"/>
<path d="M9725 2300 c-81 -11 -129 -44 -181 -125 -16 -25 -19 -49 -19 -150 0
-104 3 -126 22 -166 26 -51 63 -89 110 -113 46 -23 251 -23 296 0 48 25 79 51
99 85 23 38 48 131 48 179 0 48 -30 171 -47 191 -7 8 -13 19 -13 24 0 10 -27
31 -70 54 -40 21 -166 31 -245 21z m230 -140 c24 -22 25 -29 25 -140 0 -114 0
-117 -28 -143 -25 -24 -39 -28 -118 -33 -175 -12 -209 16 -209 171 1 99 18
148 58 165 12 6 73 9 134 7 102 -3 115 -5 138 -27z"/>
</g>
</svg>
